<svg id="visual" viewBox="0 0 960 540" width="960" height="540" xmlns="http://www.w3.org/2000/svg" xmlns:xlink="http://www.w3.org/1999/xlink" version="1.1"><path d="M0 295L22.8 303.7C45.7 312.3 91.3 329.7 137 338C182.7 346.3 228.3 345.7 274 350C319.7 354.3 365.3 363.7 411.2 363C457 362.3 503 351.7 548.8 350C594.7 348.3 640.3 355.7 686 350.7C731.7 345.7 777.3 328.3 823 321.3C868.7 314.3 914.3 317.7 937.2 319.3L960 321L960 541L937.2 541C914.3 541 868.7 541 823 541C777.3 541 731.7 541 686 541C640.3 541 594.7 541 548.8 541C503 541 457 541 411.2 541C365.3 541 319.7 541 274 541C228.3 541 182.7 541 137 541C91.3 541 45.7 541 22.8 541L0 541Z" fill="#fa7268"></path><path d="M0 414L22.8 413.5C45.7 413 91.3 412 137 411C182.7 410 228.3 409 274 403.7C319.7 398.3 365.3 388.7 411.2 385.8C457 383 503 387 548.8 397.8C594.7 408.7 640.3 426.3 686 427.2C731.7 428 777.3 412 823 405.8C868.7 399.7 914.3 403.3 937.2 405.2L960 407L960 541L937.2 541C914.3 541 868.7 541 823 541C777.3 541 731.7 541 686 541C640.3 541 594.7 541 548.8 541C503 541 457 541 411.2 541C365.3 541 319.7 541 274 541C228.3 541 182.7 541 137 541C91.3 541 45.7 541 22.8 541L0 541Z" fill="#e34c67"></path><path d="M0 437L22.8 446.7C45.7 456.3 91.3 475.7 137 482.5C182.7 489.3 228.3 483.7 274 481.5C319.7 479.3 365.3 480.7 411.2 471.7C457 462.7 503 443.3 548.8 436.8C594.7 430.3 640.3 436.7 686 447.7C731.7 458.7 777.3 474.3 823 479.5C868.7 484.7 914.3 479.3 937.2 476.7L960 474L960 541L937.2 541C914.3 541 868.7 541 823 541C777.3 541 731.7 541 686 541C640.3 541 594.7 541 548.8 541C503 541 457 541 411.2 541C365.3 541 319.7 541 274 541C228.3 541 182.7 541 137 541C91.3 541 45.7 541 22.8 541L0 541Z" fill="#c62368"></path></svg>