<svg id="visual" viewBox="0 0 960 540" width="960" height="540" xmlns="http://www.w3.org/2000/svg" xmlns:xlink="http://www.w3.org/1999/xlink" version="1.1"><path d="M0 109L22.8 109C45.7 109 91.3 109 137 100.8C182.7 92.7 228.3 76.3 274 68.2C319.7 60 365.3 60 411.2 69C457 78 503 96 548.8 103.3C594.7 110.7 640.3 107.3 686 106.5C731.7 105.7 777.3 107.3 823 113.5C868.7 119.7 914.3 130.3 937.2 135.7L960 141L960 0L937.2 0C914.3 0 868.7 0 823 0C777.3 0 731.7 0 686 0C640.3 0 594.7 0 548.8 0C503 0 457 0 411.2 0C365.3 0 319.7 0 274 0C228.3 0 182.7 0 137 0C91.3 0 45.7 0 22.8 0L0 0Z" fill="#da6a94"></path><path d="M0 255L22.8 253.2C45.7 251.3 91.3 247.7 137 250.3C182.7 253 228.3 262 274 250.3C319.7 238.7 365.3 206.3 411.2 209C457 211.7 503 249.3 548.8 270.8C594.7 292.3 640.3 297.7 686 287.8C731.7 278 777.3 253 823 251.3C868.7 249.7 914.3 271.3 937.2 282.2L960 293L960 139L937.2 133.7C914.3 128.3 868.7 117.7 823 111.5C777.3 105.3 731.7 103.7 686 104.5C640.3 105.3 594.7 108.7 548.8 101.3C503 94 457 76 411.2 67C365.3 58 319.7 58 274 66.2C228.3 74.3 182.7 90.7 137 98.8C91.3 107 45.7 107 22.8 107L0 107Z" fill="#d14b7e"></path><path d="M0 336L22.8 329.7C45.7 323.3 91.3 310.7 137 309.7C182.7 308.7 228.3 319.3 274 311.2C319.7 303 365.3 276 411.2 280.5C457 285 503 321 548.8 342.7C594.7 364.3 640.3 371.7 686 362.7C731.7 353.7 777.3 328.3 823 323C868.7 317.7 914.3 332.3 937.2 339.7L960 347L960 291L937.2 280.2C914.3 269.3 868.7 247.7 823 249.3C777.3 251 731.7 276 686 285.8C640.3 295.7 594.7 290.3 548.8 268.8C503 247.3 457 209.7 411.2 207C365.3 204.3 319.7 236.7 274 248.3C228.3 260 182.7 251 137 248.3C91.3 245.7 45.7 249.3 22.8 251.2L0 253Z" fill="#c62368"></path><path d="M0 428L22.8 417.2C45.7 406.3 91.3 384.7 137 378.3C182.7 372 228.3 381 274 374.7C319.7 368.3 365.3 346.7 411.2 353C457 359.3 503 393.7 548.8 416.2C594.7 438.7 640.3 449.3 686 445.7C731.7 442 777.3 424 823 414.2C868.7 404.3 914.3 402.7 937.2 401.8L960 401L960 345L937.2 337.7C914.3 330.3 868.7 315.7 823 321C777.3 326.3 731.7 351.7 686 360.7C640.3 369.7 594.7 362.3 548.8 340.7C503 319 457 283 411.2 278.5C365.3 274 319.7 301 274 309.2C228.3 317.3 182.7 306.7 137 307.7C91.3 308.7 45.7 321.3 22.8 327.7L0 334Z" fill="#ab1f5a"></path><path d="M0 541L22.8 541C45.7 541 91.3 541 137 541C182.7 541 228.3 541 274 541C319.7 541 365.3 541 411.2 541C457 541 503 541 548.8 541C594.7 541 640.3 541 686 541C731.7 541 777.3 541 823 541C868.7 541 914.3 541 937.2 541L960 541L960 399L937.2 399.8C914.3 400.7 868.7 402.3 823 412.2C777.3 422 731.7 440 686 443.7C640.3 447.3 594.7 436.7 548.8 414.2C503 391.7 457 357.3 411.2 351C365.3 344.7 319.7 366.3 274 372.7C228.3 379 182.7 370 137 376.3C91.3 382.7 45.7 404.3 22.8 415.2L0 426Z" fill="#911b4d"></path></svg>