<svg id="visual" viewBox="0 0 900 600" width="900" height="600" xmlns="http://www.w3.org/2000/svg" xmlns:xlink="http://www.w3.org/1999/xlink" version="1.1"><rect x="0" y="0" width="900" height="600" fill="#001220"></rect><defs><linearGradient id="grad1_0" x1="33.3%" y1="0%" x2="100%" y2="100%"><stop offset="20%" stop-color="#001220" stop-opacity="1"></stop><stop offset="80%" stop-color="#001220" stop-opacity="1"></stop></linearGradient></defs><defs><linearGradient id="grad2_0" x1="0%" y1="0%" x2="66.7%" y2="100%"><stop offset="20%" stop-color="#001220" stop-opacity="1"></stop><stop offset="80%" stop-color="#001220" stop-opacity="1"></stop></linearGradient></defs><g transform="translate(900, 0)"><path d="M0 297.5C-36.9 288.7 -73.8 279.9 -110.6 267C-147.4 254.1 -184.1 237.2 -210.3 210.3C-236.6 183.4 -252.4 146.6 -265.2 109.8C-277.9 73.1 -287.7 36.6 -297.5 0L0 0Z" fill="#C62368"></path></g><g transform="translate(0, 600)"><path d="M0 -297.5C39.8 -294.5 79.6 -291.5 113.8 -274.8C148.1 -258.1 176.7 -227.7 196.6 -196.6C216.5 -165.4 227.6 -133.5 243 -100.6C258.3 -67.8 277.9 -33.9 297.5 0L0 0Z" fill="#C62368"></path></g></svg>